<?xml version="1.0" encoding="utf-8"?><svg version="1.1" id="Layer_1" xmlns="http://www.w3.org/2000/svg" xmlns:xlink="http://www.w3.org/1999/xlink" x="0px" y="0px" viewBox="0 0 122.88 82.18" style="enable-background:new 0 0 122.88 82.18" xml:space="preserve"><style type="text/css">.st0{fill-rule:evenodd;clip-rule:evenodd;}</style><g><path class="st0" d="M2.3,12.86h30.8v-1.5C33.1,5.11,38.21,0,44.46,0h11.37c6.25,0,11.36,5.11,11.36,11.36v1.5h28.85 c1.26,0,2.3,1.03,2.3,2.3v7.51H28.06c-1.29,0-2.84,1.05-3.46,2.34L1.88,72.06C0.81,71.86,0,70.93,0,69.81V15.16 C0,13.89,1.03,12.86,2.3,12.86L2.3,12.86z M38.75,12.86h22.79v-1.29c0-3.21-2.62-5.84-5.84-5.84H44.59c-3.21,0-5.84,2.63-5.84,5.84 V12.86L38.75,12.86z M30.41,27.01h90.91c1.28,0,1.93,1.07,1.34,2.33L98.91,79.85c-0.59,1.26-2.05,2.33-3.33,2.33l-90.91,0 c-1.29,0-1.93-1.07-1.34-2.33l23.75-50.51C27.67,28.08,29.12,27.01,30.41,27.01L30.41,27.01L30.41,27.01z" fill="#9290c3"/></g></svg>